<svg width="24" height="24" viewBox="0 0 24 24" fill="none" xmlns="http://www.w3.org/2000/svg">
<path fill-rule="evenodd" clip-rule="evenodd" d="M17.9857 5.42331C14.0076 4.97869 9.99224 4.97869 6.01407 5.42331C5.7449 5.45339 5.61528 5.76904 5.78562 5.97962L9.30264 10.3272C10.5625 11.8846 11.2499 13.8271 11.2499 15.8304V18.7196L12.7499 19.8196V15.8304C12.7499 13.8271 13.4373 11.8846 14.6972 10.3272L18.2142 5.97961C18.3845 5.76904 18.2549 5.45339 17.9857 5.42331ZM5.84746 3.93259C9.93636 3.4756 14.0634 3.4756 18.1523 3.93259C19.5993 4.0943 20.2961 5.79109 19.3804 6.92302L15.8633 11.2706C14.8194 12.561 14.2499 14.1706 14.2499 15.8304V21.2996C14.2499 21.5823 14.091 21.8409 13.8389 21.9686C13.5868 22.0964 13.2843 22.0716 13.0564 21.9044L10.0564 19.7044C9.86372 19.5632 9.7499 19.3385 9.7499 19.0996V15.8304C9.7499 14.1705 9.18037 12.561 8.13646 11.2706L4.61944 6.92302C3.70375 5.7911 4.40053 4.09431 5.84746 3.93259Z" fill="black"/>
</svg>
