<svg width="24" height="24" viewBox="0 0 24 24" fill="none" xmlns="http://www.w3.org/2000/svg">
<path d="M13.0393 3.58287C12.4398 3.26999 11.6164 3.26529 11.0127 3.57706C8.43408 4.9088 6.09739 6.43463 4.05143 8.12523C3.7786 8.35067 3.59805 8.6662 3.60114 9.02686C3.60422 9.38628 3.78887 9.69829 4.0608 9.92064C6.0903 11.5801 8.42961 13.1077 10.9614 14.4291C11.5609 14.742 12.3843 14.7467 12.988 14.4349C15.5666 13.1031 17.9033 11.5773 19.9493 9.88671C20.2221 9.66127 20.4026 9.34574 20.3995 8.98509C20.3965 8.62567 20.2118 8.31365 19.9399 8.09131C17.9104 6.43187 15.5711 4.90424 13.0393 3.58287Z" fill="black"/>
<path d="M20.9584 13.7324C21.3097 13.513 21.4167 13.0504 21.1974 12.699C20.978 12.3476 20.5154 12.2406 20.164 12.46L14.0568 16.2729C13.5127 16.6125 12.7736 16.8019 12.0002 16.802C11.2267 16.802 10.4875 16.6127 9.94338 16.2731L3.90305 12.5034C3.55165 12.2841 3.08901 12.3911 2.8697 12.7425C2.6504 13.0939 2.75748 13.5566 3.10887 13.7759L9.1492 17.5456C9.97806 18.0629 11.0063 18.302 12.0003 18.302C12.9942 18.3019 14.0224 18.0627 14.8511 17.5453L20.9584 13.7324Z" fill="black"/>
<path d="M20.9584 17.4871C21.3098 17.2677 21.4167 16.805 21.1973 16.4537C20.9779 16.1023 20.5152 15.9954 20.1639 16.2148L14.875 19.5176C14.1022 20.0003 13.0683 20.2612 12.0001 20.2612C10.9319 20.2613 9.898 20.0005 9.12499 19.518L3.90312 16.2581C3.55175 16.0388 3.0891 16.1458 2.86975 16.4972C2.6504 16.8485 2.75743 17.3112 3.1088 17.5306L8.33066 20.7904C9.38844 21.4507 10.7115 21.7613 12.0002 21.7612C13.2889 21.7612 14.6119 21.4504 15.6695 20.7899L20.9584 17.4871Z" fill="black"/>
</svg>
