<svg width="21" height="21" viewBox="0 0 21 21" fill="none" xmlns="http://www.w3.org/2000/svg">
<path fill-rule="evenodd" clip-rule="evenodd" d="M14 1.4C14 0.626801 13.3732 0 12.6 0H1.4C0.626801 0 0 0.6268 0 1.4V9.04775C0 9.82095 0.626801 10.4478 1.4 10.4478H5.59966C6.37286 10.4478 6.99966 11.0746 6.99966 11.8478V19.4782C6.99966 20.2514 7.62646 20.8782 8.39966 20.8782H19.5996C20.3728 20.8782 20.9996 20.2514 20.9996 19.4782V11.8305C20.9996 11.0573 20.3728 10.4305 19.5996 10.4305H15.4C14.6268 10.4305 14 9.80367 14 9.03047V1.4Z" fill="black"/>
</svg>
