<svg width="24" height="24" viewBox="0 0 24 24" fill="none" xmlns="http://www.w3.org/2000/svg">
<path d="M11.3368 3.75C10.8788 3.75001 10.4498 3.97406 10.1881 4.34991L5.95619 10.427C5.16152 11.5682 4.80733 12.9587 4.95922 14.341L5.28464 17.3024C5.42371 18.5679 6.41718 19.5703 7.68138 19.7207L9.79843 19.9725C11.4151 20.1648 13.0543 19.9981 14.5991 19.4843C15.6804 19.1246 16.5466 18.3039 16.9638 17.2435L18.6725 12.9014C18.7551 12.6914 18.8122 12.4722 18.8426 12.2485C19.1069 10.3014 17.3475 8.68822 15.4305 9.12017L11.5326 9.99848L12.6924 5.49935C12.9208 4.61335 12.2518 3.74998 11.3368 3.75Z" fill="black"/>
</svg>
