<svg width="46" height="46" viewBox="0 0 46 46" fill="none" xmlns="http://www.w3.org/2000/svg">
<path d="M43.125 23C43.125 34.109 34.1191 43.125 23 43.125C11.8809 43.125 2.875 34.109 2.875 23C2.875 11.8809 11.8809 2.875 23 2.875C34.1191 2.875 43.125 11.8809 43.125 23Z" fill="#283544"/>
<path d="M32.433 17.9075C32.3232 17.9716 29.7089 19.3236 29.7089 22.3213C29.8321 25.74 33.008 26.9389 33.0625 26.9389C33.008 27.003 32.583 28.5722 31.3241 30.217C30.325 31.6339 29.2161 33.0625 27.5321 33.0625C25.9303 33.0625 25.3553 32.1182 23.5071 32.1182C21.5223 32.1182 20.9607 33.0625 19.441 33.0625C17.7571 33.0625 16.566 31.5574 15.5125 30.1538C14.1437 28.3167 12.9803 25.4338 12.9392 22.6657C12.9116 21.1989 13.2133 19.757 13.9794 18.5323C15.0607 16.8226 16.991 15.6619 19.0991 15.6236C20.7143 15.5729 22.1518 16.657 23.1375 16.657C24.0821 16.657 25.8482 15.6236 27.8464 15.6236C28.7089 15.6245 31.0089 15.8666 32.433 17.9075ZM23.0009 15.3308C22.7134 13.9912 23.5071 12.6517 24.2464 11.7972C25.1911 10.7639 26.683 10.0625 27.9696 10.0625C28.0518 11.402 27.5312 12.7158 26.6009 13.6726C25.7661 14.7059 24.3285 15.4839 23.0009 15.3308Z" fill="white"/>
</svg>
