<svg width="324" height="42" viewBox="0 0 324 42" fill="none" xmlns="http://www.w3.org/2000/svg">
<rect width="324" height="42" rx="20" fill="white"/>
<path fill-rule="evenodd" clip-rule="evenodd" d="M288.25 21C288.25 18.9289 289.929 17.25 292 17.25C294.071 17.25 295.75 18.9289 295.75 21C295.75 23.0711 294.071 24.75 292 24.75C289.929 24.75 288.25 23.0711 288.25 21ZM292 18.75C290.757 18.75 289.75 19.7574 289.75 21C289.75 22.2426 290.757 23.25 292 23.25C293.243 23.25 294.25 22.2426 294.25 21C294.25 19.7574 293.243 18.75 292 18.75Z" fill="black"/>
<path fill-rule="evenodd" clip-rule="evenodd" d="M284.323 19.6464C283.904 20.2503 283.75 20.7227 283.75 21C283.75 21.2773 283.904 21.7497 284.323 22.3536C284.729 22.9374 285.331 23.5703 286.093 24.155C287.62 25.3271 289.713 26.25 292 26.25C294.287 26.25 296.38 25.3271 297.907 24.155C298.669 23.5703 299.271 22.9374 299.677 22.3536C300.096 21.7497 300.25 21.2773 300.25 21C300.25 20.7227 300.096 20.2503 299.677 19.6464C299.271 19.0626 298.669 18.4297 297.907 17.845C296.38 16.6729 294.287 15.75 292 15.75C289.713 15.75 287.62 16.6729 286.093 17.845C285.331 18.4297 284.729 19.0626 284.323 19.6464ZM285.179 16.655C286.91 15.3271 289.316 14.25 292 14.25C294.684 14.25 297.09 15.3271 298.821 16.655C299.687 17.3203 300.403 18.0624 300.909 18.7911C301.401 19.4997 301.75 20.2773 301.75 21C301.75 21.7227 301.401 22.5003 300.909 23.2089C300.403 23.9376 299.687 24.6797 298.821 25.345C297.09 26.6729 294.684 27.75 292 27.75C289.316 27.75 286.91 26.6729 285.179 25.345C284.313 24.6797 283.597 23.9376 283.091 23.2089C282.599 22.5003 282.25 21.7227 282.25 21C282.25 20.2773 282.599 19.4997 283.091 18.7911C283.597 18.0624 284.313 17.3203 285.179 16.655Z" fill="black"/>
<circle cx="13" cy="21" r="4" fill="#151940"/>
<circle cx="26" cy="21" r="4" fill="#151940"/>
<circle cx="39" cy="21" r="4" fill="#151940"/>
<circle cx="52" cy="21" r="4" fill="#151940"/>
<circle cx="65" cy="21" r="4" fill="#151940"/>
<circle cx="78" cy="21" r="4" fill="#151940"/>
<circle cx="91" cy="21" r="4" fill="#151940"/>
<circle cx="104" cy="21" r="4" fill="#151940"/>
<circle cx="117" cy="21" r="4" fill="#151940"/>
<circle cx="130" cy="21" r="4" fill="#151940"/>
<circle cx="143" cy="21" r="4" fill="#151940"/>
<circle cx="156" cy="21" r="4" fill="#151940"/>
</svg>
