<svg width="66" height="21" viewBox="0 0 66 21" fill="none" xmlns="http://www.w3.org/2000/svg">
<circle cx="10.102" cy="10.102" r="10.102" fill="black"/>
<path fill-rule="evenodd" clip-rule="evenodd" d="M22.8984 4.99424V15.2465L22.9244 15.2205L27.908 20.2041H38.1449L43.1025 15.2465V10.1021H38.1189V0.051986L38.0775 0.0105841L38.0881 0H27.9235L27.9341 0.0105841L22.9244 5.02022L22.8984 4.99424Z" fill="black"/>
<path fill-rule="evenodd" clip-rule="evenodd" d="M59.2653 1.4651C59.2653 0.721209 58.6622 0.118164 57.9183 0.118164H47.1428C46.3989 0.118164 45.7959 0.721209 45.7959 1.4651V8.82301C45.7959 9.5669 46.3989 10.1699 47.1428 10.1699H51.1837C51.9276 10.1699 52.5306 10.773 52.5306 11.5169V18.8577C52.5306 19.6016 53.1336 20.2046 53.8775 20.2046H64.6531C65.3969 20.2046 66 19.6016 66 18.8577V11.4998C66 10.7559 65.3969 10.1529 64.6531 10.1529H60.6122C59.8683 10.1529 59.2653 9.54981 59.2653 8.80591V1.4651Z" fill="black"/>
</svg>
