<svg width="24" height="24" viewBox="0 0 24 24" fill="none" xmlns="http://www.w3.org/2000/svg">
<path fill-rule="evenodd" clip-rule="evenodd" d="M19.184 4.66631L11.9999 4.5L4.8158 4.66631C3.36404 4.69581 2.13329 5.74233 1.87081 7.17046C1.28395 10.3635 1.28395 13.6369 1.87081 16.83C2.13329 18.2581 3.36404 19.3046 4.81579 19.3341L11.9999 19.5004L19.184 19.3341C20.6357 19.3046 21.8665 18.2581 22.129 16.83C22.7158 13.6369 22.7158 10.3636 22.129 7.17046C21.8665 5.74233 20.6357 4.69581 19.184 4.66631ZM20.9999 11.0002C20.9999 11.5525 20.5522 12.0002 19.9999 12.0002H3.99988C3.44759 12.0002 2.99988 11.5525 2.99988 11.0002C2.99988 10.4479 3.44759 10.0002 3.99988 10.0002H19.9999C20.5522 10.0002 20.9999 10.4479 20.9999 11.0002Z" fill="black"/>
</svg>
