<svg width="63" height="63" viewBox="0 0 63 63" fill="none" xmlns="http://www.w3.org/2000/svg">
<path fill-rule="evenodd" clip-rule="evenodd" d="M27.5265 10.7999C29.2968 7.74898 33.7027 7.74899 35.473 10.7999L40.8946 20.1433C41.3943 21.0045 42.2581 21.5922 43.2426 21.7409L52.2454 23.1007C56.1698 23.6934 57.5464 28.6483 54.4901 31.1803L47.9305 36.6149C47.0098 37.3777 46.5769 38.5809 46.8005 39.7554L48.638 49.4048C49.3578 53.1847 45.3898 56.1216 41.9851 54.3289L33.0285 49.6128C32.0716 49.109 30.9279 49.109 29.971 49.6128L21.0144 54.3289C17.6098 56.1216 13.6417 53.1847 14.3615 49.4048L16.199 39.7554C16.4226 38.5809 15.9897 37.3777 15.069 36.6149L8.50939 31.1803C5.45314 28.6482 6.8297 23.6934 10.7541 23.1007L19.7569 21.7409C20.7414 21.5922 21.6052 21.0045 22.1049 20.1432L27.5265 10.7999ZM32.0674 12.7761C31.8145 12.3403 31.185 12.3403 30.9321 12.7761L25.5106 22.1194C24.4112 24.0141 22.5109 25.3071 20.3449 25.6342L11.3421 26.994C10.7815 27.0787 10.5848 27.7865 11.0214 28.1482L17.5811 33.5828C19.6066 35.2609 20.559 37.908 20.067 40.492L18.2295 50.1414C18.1267 50.6814 18.6935 51.1009 19.1799 50.8448L28.1365 46.1288C30.2417 45.0203 32.7578 45.0203 34.863 46.1288L43.8196 50.8448C44.306 51.1009 44.8728 50.6814 44.77 50.1414L42.9326 40.492C42.4405 37.908 43.3929 35.2609 45.4185 33.5828L51.9781 28.1482C52.4147 27.7865 52.218 27.0787 51.6574 26.994L42.6546 25.6342C40.4886 25.3071 38.5883 24.0141 37.4889 22.1194L32.0674 12.7761Z" fill="#FEB21E"/>
</svg>
