<svg width="24" height="24" viewBox="0 0 24 24" fill="none" xmlns="http://www.w3.org/2000/svg">
<path d="M11.25 2.74576C11.25 2.62917 11.1501 2.53715 11.0341 2.54886C6.24107 3.03286 2.5 7.07972 2.5 12.0004C2.5 17.2471 6.75329 21.5004 12 21.5004C14.6367 21.5004 17.0227 20.4257 18.7434 18.6919C18.8256 18.609 18.8165 18.4737 18.7258 18.4004L11.5286 12.5837C11.3524 12.4413 11.25 12.2269 11.25 12.0004V2.74576Z" fill="black"/>
<path d="M19.6695 17.2344C19.7601 17.3077 19.8942 17.2883 19.958 17.1907C20.7671 15.9526 21.2952 14.5138 21.4515 12.9658C21.4632 12.8498 21.3712 12.7504 21.2546 12.7504H14.6868C14.4983 12.7504 14.4145 12.9874 14.5611 13.1059L19.6695 17.2344Z" fill="black"/>
<path d="M21.2546 11.2504C21.3712 11.2504 21.4632 11.1505 21.4515 11.0345C20.9996 6.55905 17.4413 3.00076 12.9658 2.54886C12.8498 2.53714 12.75 2.62917 12.75 2.74576V10.9504C12.75 11.116 12.8843 11.2504 13.05 11.2504H21.2546Z" fill="black"/>
</svg>
