<svg width="38" height="38" viewBox="0 0 38 38" fill="none" xmlns="http://www.w3.org/2000/svg">
<path d="M6.78532 13.2109C4.9291 13.709 3.5625 15.4032 3.5625 17.4167V22.1667C3.5625 24.5714 5.51193 26.5208 7.91667 26.5208H11.875C12.5308 26.5208 13.0625 25.9892 13.0625 25.3333V14.25C13.0625 13.5942 12.5308 13.0625 11.875 13.0625H9.20681C9.88632 9.1517 13.8678 5.9375 19 5.9375C24.1322 5.9375 28.1137 9.1517 28.7932 13.0625H26.125C25.4692 13.0625 24.9375 13.5942 24.9375 14.25V25.3333C24.9375 25.9892 25.4692 26.5208 26.125 26.5208H28.7581C28.222 28.7903 26.1832 30.4792 23.75 30.4792H21.9365C21.4667 29.3187 20.329 28.5 19 28.5C17.2511 28.5 15.8333 29.9178 15.8333 31.6667C15.8333 33.4156 17.2511 34.8333 19 34.8333C20.329 34.8333 21.4667 34.0147 21.9365 32.8542H23.75C27.5496 32.8542 30.6912 30.0364 31.199 26.3766C33.0632 25.8838 34.4375 24.1857 34.4375 22.1667V17.4167C34.4375 15.4032 33.0709 13.709 31.2147 13.2109C30.6107 7.66269 25.2165 3.5625 19 3.5625C12.7835 3.5625 7.3893 7.66268 6.78532 13.2109Z" fill="black"/>
</svg>
