<svg width="25" height="25" viewBox="0 0 25 25" fill="none" xmlns="http://www.w3.org/2000/svg">
<circle opacity="0.5" cx="12.4994" cy="12.4998" r="11.7626" transform="rotate(1.11942 12.4994 12.4998)" stroke="black"/>
<path d="M9.1042 12.3894C9.09816 12.6985 8.992 12.9581 8.78571 13.1681C8.57942 13.3782 8.31578 13.4801 7.99478 13.4738C7.67378 13.4675 7.41397 13.3732 7.21535 13.191C7.01696 12.9968 6.9209 12.7392 6.92717 12.4182C6.93367 12.0853 7.03413 11.8137 7.22853 11.6035C7.43482 11.3934 7.69846 11.2915 8.01946 11.2978C8.75656 11.3122 9.11814 11.6761 9.1042 12.3894Z" fill="#7A7A7A"/>
<path d="M13.5973 12.4772C13.5913 12.7863 13.4851 13.0459 13.2788 13.2559C13.0725 13.466 12.8089 13.5678 12.4879 13.5616C12.1669 13.5553 11.9071 13.461 11.7085 13.2787C11.5101 13.0846 11.414 12.827 11.4203 12.506C11.4268 12.1731 11.5272 11.9015 11.7216 11.6912C11.9279 11.4812 12.1916 11.3793 12.5126 11.3856C13.2497 11.4 13.6113 11.7639 13.5973 12.4772Z" fill="#7A7A7A"/>
<path d="M18.0904 12.565C18.0844 12.8741 17.9782 13.1337 17.7719 13.3437C17.5656 13.5538 17.302 13.6556 16.981 13.6494C16.66 13.6431 16.4002 13.5488 16.2016 13.3665C16.0032 13.1724 15.9071 12.9148 15.9134 12.5938C15.9199 12.2609 16.0204 11.9893 16.2148 11.779C16.421 11.569 16.6847 11.4671 17.0057 11.4734C17.7428 11.4878 18.1044 11.8516 18.0904 12.565Z" fill="#7A7A7A"/>
</svg>
