<svg width="66" height="21" viewBox="0 0 66 21" fill="none" xmlns="http://www.w3.org/2000/svg">
<circle cx="10.102" cy="10.102" r="10.102" fill="black"/>
<path fill-rule="evenodd" clip-rule="evenodd" d="M22.8984 4.99193V15.248L22.9258 15.2207L27.9092 20.2041H38.1455L43.1025 15.2471V10.102H38.1191V0.0524747L38.0763 0.00963569L38.0859 0H27.9258L27.9354 0.00963569L22.9258 5.01927L22.8984 4.99193Z" fill="black"/>
<path fill-rule="evenodd" clip-rule="evenodd" d="M59.2653 1.46217C59.2653 0.718279 58.6622 0.115234 57.9183 0.115234H47.1428C46.3989 0.115234 45.7959 0.718279 45.7959 1.46217V8.82008C45.7959 9.56397 46.3989 10.167 47.1428 10.167H51.1833C51.9272 10.167 52.5303 10.7701 52.5303 11.514V18.8552C52.5303 19.5991 53.1333 20.2022 53.8772 20.2022H64.6527C65.3966 20.2022 65.9997 19.5991 65.9997 18.8552V11.4973C65.9997 10.7534 65.3966 10.1504 64.6527 10.1504H60.6122C59.8683 10.1504 59.2653 9.54735 59.2653 8.80345V1.46217Z" fill="black"/>
</svg>
