<svg width="29" height="29" viewBox="0 0 29 29" fill="none" xmlns="http://www.w3.org/2000/svg">
<path fill-rule="evenodd" clip-rule="evenodd" d="M19.3334 1.93333C19.3334 0.865584 18.4678 0 17.4 0H1.93334C0.865584 0 0 0.865584 0 1.93334V12.4945C0 13.5623 0.865584 14.4279 1.93334 14.4279H7.733C8.80076 14.4279 9.66634 15.2935 9.66634 16.3612V26.8988C9.66634 27.9666 10.5319 28.8322 11.5997 28.8322H27.0664C28.1341 28.8322 28.9997 27.9666 28.9997 26.8988V16.3376C28.9997 15.2699 28.1341 14.4043 27.0664 14.4043H21.2667C20.1989 14.4043 19.3334 13.5387 19.3334 12.4709V1.93333Z" fill="white"/>
</svg>
