<svg width="21" height="22" viewBox="0 0 21 22" fill="none" xmlns="http://www.w3.org/2000/svg">
<mask id="mask0_0_1991" style="mask-type:alpha" maskUnits="userSpaceOnUse" x="-4" y="-7" width="29" height="29">
<circle cx="10.5" cy="7.5" r="14.5" fill="#31521D"/>
</mask>
<g mask="url(#mask0_0_1991)">
<path d="M10.5 0C7.69404 0 5.41935 2.24142 5.41935 5.00635C5.41935 7.77129 7.69404 10.0127 10.5 10.0127C13.306 10.0127 15.5806 7.77129 15.5806 5.00635C15.5806 2.24142 13.306 0 10.5 0Z" fill="#A2A2A2"/>
<path d="M5.08065 12.6828C2.27468 12.6828 0 14.9242 0 17.6891V19.2755C0 20.2811 0.739584 21.1385 1.74676 21.3005C7.54388 22.2332 13.4561 22.2332 19.2532 21.3005C20.2604 21.1385 21 20.2811 21 19.2755V17.6891C21 14.9242 18.7253 12.6828 15.9194 12.6828H15.4575C15.2076 12.6828 14.9592 12.7217 14.7216 12.7982L13.5489 13.1755C11.5678 13.8129 9.43221 13.8129 7.45105 13.1755L6.27842 12.7982C6.04081 12.7217 5.79242 12.6828 5.54247 12.6828H5.08065Z" fill="#A2A2A2"/>
</g>
</svg>
