<svg width="24" height="24" viewBox="0 0 24 24" fill="none" xmlns="http://www.w3.org/2000/svg">
<path d="M11.25 2.74479C11.25 2.62819 11.1501 2.53617 11.0341 2.54789C6.24107 3.03188 2.5 7.07875 2.5 11.9994C2.5 17.2461 6.75329 21.4994 12 21.4994C14.6367 21.4994 17.0227 20.4248 18.7434 18.6909C18.8256 18.6081 18.8165 18.4728 18.7258 18.3994L11.5286 12.5827C11.3524 12.4403 11.25 12.2259 11.25 11.9994V2.74479Z" fill="black"/>
<path d="M19.6695 17.2334C19.7601 17.3068 19.8942 17.2873 19.958 17.1897C20.7671 15.9516 21.2952 14.5128 21.4515 12.9648C21.4632 12.8488 21.3712 12.7494 21.2546 12.7494H14.6868C14.4983 12.7494 14.4145 12.9864 14.5611 13.1049L19.6695 17.2334Z" fill="black"/>
<path d="M21.2546 11.2494C21.3712 11.2494 21.4632 11.1495 21.4515 11.0335C20.9996 6.55807 17.4413 2.99978 12.9658 2.54788C12.8498 2.53617 12.75 2.62819 12.75 2.74479V10.9494C12.75 11.1151 12.8843 11.2494 13.05 11.2494H21.2546Z" fill="black"/>
</svg>
