<svg width="24" height="24" viewBox="0 0 24 24" fill="none" xmlns="http://www.w3.org/2000/svg">
<path fill-rule="evenodd" clip-rule="evenodd" d="M7.30652 7.75828L7.64958 10.8458L6.95535 10.9013C5.98726 10.9785 5.19676 11.7063 5.03982 12.6647C4.67813 14.8736 4.67813 17.1266 5.03982 19.3355C5.19676 20.2939 5.98726 21.0217 6.95535 21.0989L8.45148 21.2184C10.8136 21.407 13.187 21.407 15.5492 21.2184L17.0453 21.0989C18.0134 21.0217 18.8039 20.2939 18.9608 19.3355C19.3225 17.1266 19.3225 14.8736 18.9608 12.6647C18.8039 11.7063 18.0134 10.9785 17.0453 10.9013L16.351 10.8458L16.694 7.75828C16.7345 7.3943 16.7345 7.02696 16.694 6.66298L16.6713 6.45809C16.4298 4.2847 14.7212 2.56504 12.5494 2.30953C12.1846 2.26661 11.816 2.26661 11.4512 2.30953C9.27937 2.56504 7.57077 4.2847 7.32928 6.45809L7.30652 6.66298C7.26607 7.02696 7.26607 7.3943 7.30652 7.75828ZM12.3741 3.79926C12.1258 3.77004 11.8748 3.77004 11.6264 3.79926C10.1478 3.97322 8.98452 5.14402 8.82011 6.62373L8.79734 6.82863C8.76913 7.08252 8.76913 7.33875 8.79734 7.59263L9.14614 10.7318C11.0469 10.6099 12.9536 10.6099 14.8544 10.7318L15.2032 7.59263C15.2314 7.33874 15.2314 7.08252 15.2032 6.82863L15.1805 6.62373C15.016 5.14402 13.8528 3.97322 12.3741 3.79926ZM12.0003 14.5001C11.1719 14.5001 10.5003 15.1717 10.5003 16.0001C10.5003 16.8285 11.1719 17.5001 12.0003 17.5001C12.8287 17.5001 13.5003 16.8285 13.5003 16.0001C13.5003 15.1717 12.8287 14.5001 12.0003 14.5001Z" fill="black"/>
</svg>
