<svg width="53" height="41" viewBox="0 0 53 41" fill="none" xmlns="http://www.w3.org/2000/svg">
<path fill-rule="evenodd" clip-rule="evenodd" d="M25.5194 40.0938C25.8349 40.2831 26.1721 40.3669 26.4998 40.3628C26.8276 40.3669 27.1648 40.2831 27.4802 40.0938L30.2788 38.4147C35.7673 35.1216 42.4798 34.5837 48.4227 36.9609C50.615 37.8378 52.9997 36.2233 52.9997 33.8621V5.12179C52.9997 3.69709 52.1323 2.41592 50.8095 1.8868C43.1551 -1.17495 34.5095 -0.482197 27.4404 3.7593L26.4998 4.32361L25.5593 3.7593C18.4902 -0.482197 9.84455 -1.17495 2.1902 1.8868C0.867394 2.41592 0 3.69709 0 5.12179V33.8621C0 36.2233 2.38472 37.8378 4.57699 36.9609C10.5199 34.5837 17.2323 35.1216 22.7209 38.4147L25.5194 40.0938ZM3.69765 5.2668V33.3364C10.5896 30.7529 18.2955 31.4473 24.6233 35.244L24.651 35.2606V7.52648L23.6569 6.93001C17.6199 3.30782 10.2458 2.69564 3.69765 5.2668ZM28.3764 35.244L28.3487 35.2606V7.52648L29.3428 6.93001C35.3798 3.30782 42.7539 2.69564 49.302 5.2668V33.3364C42.4101 30.7529 34.7042 31.4473 28.3764 35.244Z" fill="black"/>
</svg>
