<svg width="30" height="30" viewBox="0 0 30 30" fill="none" xmlns="http://www.w3.org/2000/svg">
<path fill-rule="evenodd" clip-rule="evenodd" d="M19.9998 1.99997C19.9998 0.895419 19.1043 0 17.9998 0H1.99997C0.895419 0 0 0.895421 0 1.99998V12.9252C0 14.0298 0.895419 14.9252 1.99997 14.9252H7.9999C9.10446 14.9252 9.99988 15.8206 9.99988 16.9252V27.8253C9.99988 28.9299 10.8953 29.8253 11.9999 29.8253H27.9997C29.1042 29.8253 29.9996 28.9299 29.9996 27.8253V16.9001C29.9996 15.7955 29.1042 14.9001 27.9997 14.9001H21.9997C20.8952 14.9001 19.9998 14.0047 19.9998 12.9001V1.99997Z" fill="white"/>
</svg>
