<svg width="24" height="24" viewBox="0 0 24 24" fill="none" xmlns="http://www.w3.org/2000/svg">
<path d="M13.7958 4.13597C12.8133 3.12135 11.1861 3.12135 10.2037 4.13596L5.40521 9.09169C5.12963 9.37631 4.94444 9.73612 4.87299 10.1258C4.29023 13.3038 4.24721 16.5572 4.74574 19.7495L4.92225 20.8797C4.978 21.2367 5.28546 21.4998 5.64677 21.4998H8.99973C9.27587 21.4998 9.49973 21.276 9.49973 20.9998V13.9998H14.4997V20.9998C14.4997 21.276 14.7236 21.4998 14.9997 21.4998H18.3526C18.7139 21.4998 19.0214 21.2367 19.0772 20.8797L19.2537 19.7495C19.7522 16.5572 19.7092 13.3038 19.1264 10.1258C19.055 9.73612 18.8698 9.37631 18.5942 9.0917L13.7958 4.13597Z" fill="black"/>
</svg>
