<svg width="146" height="146" viewBox="0 0 146 146" fill="none" xmlns="http://www.w3.org/2000/svg">
<path d="M145.782 73.1091C145.782 84.6838 143.025 96.0921 137.741 106.39C132.456 116.688 124.795 125.579 115.391 132.328C105.988 139.077 95.1123 143.489 83.6649 145.2C72.2174 146.911 60.5271 145.871 49.5613 142.166C38.5956 138.462 28.6697 132.199 20.6051 123.896C12.5405 115.593 6.56911 105.489 3.18501 94.4206C-0.199089 83.3516 -0.898562 71.636 1.14448 60.243C3.18752 48.8501 7.91433 38.1075 14.9337 28.9042L72.8909 73.1091H145.782Z" fill="#D9D9D9"/>
<path d="M13.0148 114.678C6.41393 105.17 2.17224 94.227 0.640726 82.7541C-0.890791 71.2812 0.331896 59.6085 4.2076 48.702C8.08331 37.7955 14.5006 27.9687 22.9284 20.035C31.3562 12.1012 41.5522 6.28859 52.6727 3.07808C63.7931 -0.132441 75.5182 -0.64852 86.8777 1.57255C98.2373 3.79361 108.905 8.68796 117.997 15.8506C127.089 23.0132 134.345 32.2381 139.164 42.7619C143.983 53.2857 146.226 64.8059 145.709 76.369L72.8907 73.1093L13.0148 114.678Z" fill="#969696"/>
<path d="M3.31941 50.4687C6.88005 39.4553 13.0123 29.4482 21.2086 21.2755C29.4049 13.1028 39.4296 6.9995 50.4532 3.47069C61.4767 -0.0581191 73.1822 -0.910983 84.6008 0.982676C96.0195 2.87633 106.823 7.46207 116.117 14.3604C125.412 21.2587 132.93 30.2713 138.049 40.6522C143.169 51.0332 145.742 62.4841 145.557 74.0573C145.372 85.6305 142.434 96.9932 136.985 107.205C131.536 117.417 123.734 126.185 114.224 132.782L72.6756 72.8919L3.31941 50.4687Z" fill="#7A7A7A"/>
</svg>
