<svg width="78" height="78" viewBox="0 0 78 78" fill="none" xmlns="http://www.w3.org/2000/svg">
<path d="M73.125 39C73.125 57.837 57.8541 73.125 39 73.125C20.1459 73.125 4.875 57.837 4.875 39C4.875 20.1459 20.1459 4.875 39 4.875C57.8541 4.875 73.125 20.1459 73.125 39Z" fill="#283544"/>
<path d="M54.9951 30.3649C54.8089 30.4735 50.376 32.7661 50.376 37.8491C50.5849 43.6461 55.9701 45.6791 56.0625 45.6791C55.9701 45.7877 55.2495 48.4484 53.1148 51.2376C51.4206 53.6402 49.5403 56.0625 46.6849 56.0625C43.9688 56.0625 42.9938 54.4612 39.8599 54.4612C36.4943 54.4612 35.542 56.0625 32.9652 56.0625C30.1099 56.0625 28.0902 53.5104 26.3037 51.1304C23.9828 48.0153 22.0101 43.1269 21.9404 38.4332C21.8935 35.946 22.4052 33.5011 23.7042 31.4244C25.5377 28.5252 28.8109 26.5571 32.3854 26.4922C35.1242 26.4062 37.5617 28.2445 39.2331 28.2445C40.8349 28.2445 43.8295 26.4922 47.2178 26.4922C48.6803 26.4937 52.5803 26.9042 54.9951 30.3649ZM39.0015 25.9957C38.514 23.7243 39.8599 21.4529 41.1135 20.004C42.7153 18.2518 45.2451 17.0625 47.4268 17.0625C47.566 19.3339 46.6834 21.5615 45.1058 23.1839C43.6903 24.9361 41.2528 26.2552 39.0015 25.9957Z" fill="white"/>
</svg>
