<svg width="42" height="42" viewBox="0 0 42 42" fill="none" xmlns="http://www.w3.org/2000/svg">
<path d="M28.1149 15.7406C28.6275 15.228 28.6275 14.397 28.1149 13.8844C27.6024 13.3719 26.7714 13.3719 26.2588 13.8844L20.9997 19.1435L15.7406 13.8844C15.228 13.3719 14.397 13.3719 13.8844 13.8844C13.3719 14.397 13.3719 15.228 13.8844 15.7406L19.1435 20.9997L13.8844 26.2588C13.3719 26.7714 13.3719 27.6024 13.8844 28.1149C14.397 28.6275 15.228 28.6275 15.7406 28.1149L20.9997 22.8558L26.2588 28.1149C26.7714 28.6275 27.6024 28.6275 28.115 28.1149C28.6275 27.6024 28.6275 26.7714 28.115 26.2588L22.8558 20.9997L28.1149 15.7406Z" fill="#8B8B8B"/>
</svg>
