<svg width="30" height="30" viewBox="0 0 30 30" fill="none" xmlns="http://www.w3.org/2000/svg">
<path fill-rule="evenodd" clip-rule="evenodd" d="M20.0004 2.00004C20.0004 0.895449 19.105 0 18.0004 0H2.00004C0.895449 0 0 0.895451 0 2.00004V12.9256C0 14.0302 0.895448 14.9257 2.00004 14.9257H7.9993C9.1039 14.9257 9.99934 15.8211 9.99934 16.9257V27.8262C9.99934 28.9308 10.8948 29.8263 11.9994 29.8263H27.9997C29.1043 29.8263 29.9998 28.9308 29.9998 27.8262V16.9006C29.9998 15.796 29.1043 14.9006 27.9997 14.9006H22.0004C20.8959 14.9006 20.0004 14.0051 20.0004 12.9006V2.00004Z" fill="white"/>
</svg>
