<svg width="51" height="39" viewBox="0 0 51 39" fill="none" xmlns="http://www.w3.org/2000/svg">
<path fill-rule="evenodd" clip-rule="evenodd" d="M14.3832 34.7701V36.8332V38.8962H13.4748V38.3953C13.1867 38.7668 12.7495 39 12.1553 39C10.9837 39 10.0653 38.0939 10.0653 36.8332C10.0653 35.5734 10.9837 34.6663 12.1553 34.6663C12.7495 34.6663 13.1867 34.8995 13.4748 35.271V34.7701H14.3832ZM12.2683 35.5121C11.4819 35.5121 11.0007 36.1079 11.0007 36.8331C11.0007 37.5584 11.4819 38.1542 12.2683 38.1542C13.0196 38.1542 13.5268 37.5841 13.5268 36.8331C13.5268 36.0822 13.0196 35.5121 12.2683 35.5121ZM45.0807 36.8331C45.0807 36.1079 45.5619 35.5121 46.3482 35.5121C47.1006 35.5121 47.6068 36.0822 47.6068 36.8331C47.6068 37.5841 47.1006 38.1542 46.3482 38.1542C45.5619 38.1542 45.0807 37.5584 45.0807 36.8331ZM48.4642 33.1131V36.8332V38.8962H47.5548V38.3953C47.2666 38.7668 46.8295 39 46.2352 39C45.0637 39 44.1453 38.0939 44.1453 36.8332C44.1453 35.5734 45.0637 34.6663 46.2352 34.6663C46.8295 34.6663 47.2666 34.8995 47.5548 35.271V33.1131H48.4642ZM25.6592 35.4696C26.2444 35.4696 26.6206 35.8322 26.7166 36.4705H24.5487C24.6457 35.8747 25.0119 35.4696 25.6592 35.4696ZM23.5963 36.8332C23.5963 35.5467 24.4526 34.6663 25.6772 34.6663C26.8477 34.6663 27.652 35.5467 27.661 36.8332C27.661 36.9537 27.652 37.0663 27.643 37.178H24.5407C24.6717 37.921 25.205 38.1888 25.7902 38.1888C26.2094 38.1888 26.6556 38.0327 27.0057 37.757L27.4509 38.422C26.9437 38.8449 26.3675 39 25.7382 39C24.4876 39 23.5963 38.1453 23.5963 36.8332ZM36.646 36.8331C36.646 36.1079 37.1272 35.5121 37.9136 35.5121C38.6649 35.5121 39.1721 36.0822 39.1721 36.8331C39.1721 37.5841 38.6649 38.1542 37.9136 38.1542C37.1272 38.1542 36.646 37.5584 36.646 36.8331ZM40.0285 34.7701V36.8332V38.8962H39.1201V38.3953C38.831 38.7668 38.3948 39 37.8005 39C36.629 39 35.7106 38.0939 35.7106 36.8332C35.7106 35.5734 36.629 34.6663 37.8005 34.6663C38.3948 34.6663 38.831 34.8995 39.1201 35.271V34.7701H40.0285ZM31.5157 36.8332C31.5157 38.085 32.3981 39 33.7447 39C34.3739 39 34.7931 38.8617 35.2473 38.5079L34.8111 37.7827C34.47 38.0248 34.1118 38.1542 33.7176 38.1542C32.9923 38.1453 32.4591 37.6276 32.4591 36.8332C32.4591 36.0387 32.9923 35.521 33.7176 35.5121C34.1118 35.5121 34.47 35.6415 34.8111 35.8836L35.2473 35.1584C34.7931 34.8046 34.3739 34.6663 33.7447 34.6663C32.3981 34.6663 31.5157 35.5813 31.5157 36.8332ZM42.1262 35.271C42.3623 34.9084 42.7035 34.6663 43.2277 34.6663C43.4118 34.6663 43.6739 34.7009 43.875 34.779L43.5949 35.6248C43.4028 35.5467 43.2107 35.521 43.0266 35.521C42.4324 35.521 42.1352 35.9004 42.1352 36.5832V38.8962H41.2259V34.7701H42.1262V35.271ZM18.8761 35.0981C18.4389 34.8135 17.8367 34.6663 17.1724 34.6663C16.1139 34.6663 15.4326 35.1673 15.4326 35.9874C15.4326 36.6602 15.9398 37.0752 16.8742 37.2047L17.3034 37.2649C17.8017 37.3341 18.0368 37.4635 18.0368 37.6967C18.0368 38.0159 17.7046 38.1977 17.0843 38.1977C16.4551 38.1977 16.0009 37.9991 15.6947 37.7659L15.2665 38.4645C15.7648 38.8271 16.394 39 17.0753 39C18.2819 39 18.9812 38.4388 18.9812 37.6532C18.9812 36.928 18.4309 36.5486 17.5215 36.4191L17.0933 36.3579C16.7002 36.3065 16.385 36.2294 16.385 35.9528C16.385 35.6504 16.6822 35.4696 17.1804 35.4696C17.7136 35.4696 18.2298 35.6682 18.4829 35.8233L18.8761 35.0981ZM29.4969 35.271C29.732 34.9084 30.0731 34.6663 30.5973 34.6663C30.7814 34.6663 31.0435 34.7009 31.2446 34.779L30.9645 35.6248C30.7724 35.5467 30.5803 35.521 30.3962 35.521C29.802 35.521 29.5049 35.9004 29.5049 36.5832V38.8962H28.5965V34.7701H29.4969V35.271ZM22.8448 34.7701H21.3591V33.5182H20.4407V34.7701H19.5933V35.5902H20.4407V37.4724C20.4407 38.4299 20.8169 39 21.8914 39C22.2855 39 22.7397 38.8794 23.0279 38.6808L22.7657 37.9121C22.4946 38.0673 22.1975 38.1453 21.9614 38.1453C21.5072 38.1453 21.3591 37.8686 21.3591 37.4546V35.5902H22.8448V34.7701ZM9.26192 36.3065V38.8962H8.34352V36.6C8.34352 35.9004 8.04639 35.5121 7.42612 35.5121C6.82285 35.5121 6.40367 35.8925 6.40367 36.6089L6.40367 38.8962H5.48527L5.48527 36.6C5.48527 35.9004 5.18013 35.5121 4.57687 35.5121C3.9556 35.5121 3.55342 35.8925 3.55342 36.6089L3.55342 38.8962H2.63602L2.63602 34.7701H3.54542V35.2789C3.88657 34.7958 4.32276 34.6663 4.76895 34.6663C5.40723 34.6663 5.86143 34.943 6.14956 35.4005C6.53473 34.8215 7.08497 34.6574 7.6182 34.6663C8.63264 34.6752 9.26192 35.3313 9.26192 36.3065Z" fill="#231F20"/>
<path d="M32.3426 27.7594H18.5746V3.32243H32.3426V27.7594Z" fill="#FF5F00"/>
<path d="M19.4485 15.5417C19.4485 10.5846 21.7985 6.16889 25.4582 3.32325C22.782 1.24237 19.4045 0.000370495 15.7339 0.000370495C7.04408 0.000370495 0 6.95836 0 15.5417C0 24.1251 7.04408 31.0831 15.7339 31.0831C19.4045 31.0831 22.782 29.8411 25.4582 27.7602C21.7985 24.9145 19.4485 20.4989 19.4485 15.5417" fill="#EB001B"/>
<path d="M50.9176 15.5417C50.9176 24.1251 43.8735 31.0831 35.1837 31.0831C31.5131 31.0831 28.1356 29.8411 25.4584 27.7602C29.119 24.9145 31.4691 20.4989 31.4691 15.5417C31.4691 10.5846 29.119 6.16889 25.4584 3.32325C28.1356 1.24237 31.5131 0.000370495 35.1837 0.000370495C43.8735 0.000370495 50.9176 6.95836 50.9176 15.5417" fill="#F79E1B"/>
</svg>
