<svg width="24" height="26" viewBox="0 0 24 26" fill="none" xmlns="http://www.w3.org/2000/svg">
<path fill-rule="evenodd" clip-rule="evenodd" d="M3.25 12.5524C3.25 7.49733 7.16751 3.39941 12 3.39941C16.8325 3.39941 20.75 7.49733 20.75 12.5524C20.75 17.6074 16.8325 21.7053 12 21.7053C7.16751 21.7053 3.25 17.6074 3.25 12.5524ZM13 8.36816C13 8.94588 12.5523 9.41422 12 9.41422C11.4477 9.41422 11 8.94588 11 8.36816C11 7.79045 11.4477 7.32211 12 7.32211C12.5523 7.32211 13 7.79045 13 8.36816ZM12 11.2448C12.4142 11.2448 12.75 11.5961 12.75 12.0293V17.2596C12.75 17.6929 12.4142 18.0442 12 18.0442C11.5858 18.0442 11.25 17.6929 11.25 17.2596V12.0293C11.25 11.5961 11.5858 11.2448 12 11.2448Z" fill="white"/>
</svg>
