<svg width="24" height="24" viewBox="0 0 24 24" fill="none" xmlns="http://www.w3.org/2000/svg">
<path d="M20.4466 16.0612C20.5427 16.2511 20.5082 16.481 20.3604 16.6341C20.2127 16.7873 19.9842 16.8302 19.791 16.7411L17.2917 15.5875C15.1911 14.618 12.8987 14.1745 10.6103 14.2788C10.5832 15.0137 10.5428 15.7482 10.4893 16.482L10.4209 17.4209C10.3794 17.9906 9.74419 18.309 9.2629 18.0015C7.1739 16.6666 5.35785 14.9467 3.91152 12.9333L3.45134 12.2927C3.32612 12.1184 3.32612 11.8836 3.45134 11.7092L3.91152 11.0686C5.35784 9.05523 7.1739 7.33528 9.2629 6.00045C9.74419 5.69292 10.3794 6.01136 10.4209 6.581L10.4893 7.51996C10.5352 8.14982 10.5715 8.78021 10.598 9.4109H11.2411C14.8221 9.41089 18.0988 11.4245 19.7165 14.6193L20.4466 16.0612Z" fill="black"/>
</svg>
