<svg width="66" height="21" viewBox="0 0 66 21" fill="none" xmlns="http://www.w3.org/2000/svg">
<circle cx="10.102" cy="10.102" r="10.102" fill="black"/>
<path fill-rule="evenodd" clip-rule="evenodd" d="M22.8984 4.99193V15.248L22.9258 15.2207L27.9092 20.2041H38.1455L43.1025 15.2471V10.102H38.1191V0.0524747L38.0763 0.00963569L38.0859 0H27.9258L27.9354 0.00963569L22.9258 5.01927L22.8984 4.99193Z" fill="black"/>
<path fill-rule="evenodd" clip-rule="evenodd" d="M59.2653 1.46413C59.2653 0.720233 58.6622 0.117188 57.9183 0.117188H47.1428C46.3989 0.117188 45.7959 0.720232 45.7959 1.46413V8.82203C45.7959 9.56593 46.3989 10.169 47.1428 10.169H51.1833C51.9272 10.169 52.5303 10.772 52.5303 11.5159V18.8572C52.5303 19.6011 53.1333 20.2041 53.8772 20.2041H64.6527C65.3966 20.2041 65.9997 19.6011 65.9997 18.8572V11.4993C65.9997 10.7554 65.3966 10.1523 64.6527 10.1523H60.6122C59.8683 10.1523 59.2653 9.5493 59.2653 8.8054V1.46413Z" fill="black"/>
</svg>
