<svg width="29" height="29" viewBox="0 0 29 29" fill="none" xmlns="http://www.w3.org/2000/svg">
<circle cx="14.5" cy="14.5" r="14.5" fill="#E0E0E0"/>
<mask id="mask0_0_1112" style="mask-type:alpha" maskUnits="userSpaceOnUse" x="0" y="0" width="29" height="29">
<circle cx="14.5" cy="14.5" r="14.5" fill="#31521D"/>
</mask>
<g mask="url(#mask0_0_1112)">
<path d="M14.5 7C11.694 7 9.41935 9.24142 9.41935 12.0064C9.41935 14.7713 11.694 17.0127 14.5 17.0127C17.306 17.0127 19.5806 14.7713 19.5806 12.0064C19.5806 9.24142 17.306 7 14.5 7Z" fill="#A2A2A2"/>
<path d="M9.08065 19.6828C6.27468 19.6828 4 21.9242 4 24.6891V26.2755C4 27.2811 4.73958 28.1385 5.74676 28.3005C11.5439 29.2332 17.4561 29.2332 23.2532 28.3005C24.2604 28.1385 25 27.2811 25 26.2755V24.6891C25 21.9242 22.7253 19.6828 19.9194 19.6828H19.4575C19.2076 19.6828 18.9592 19.7217 18.7216 19.7982L17.5489 20.1755C15.5678 20.8129 13.4322 20.8129 11.4511 20.1755L10.2784 19.7982C10.0408 19.7217 9.79242 19.6828 9.54247 19.6828H9.08065Z" fill="#A2A2A2"/>
</g>
</svg>
