<svg width="269" height="82" viewBox="0 0 269 82" fill="none" xmlns="http://www.w3.org/2000/svg">
<circle cx="40.35" cy="40.8875" r="40.35" fill="black"/>
<path fill-rule="evenodd" clip-rule="evenodd" d="M242.1 3.9258C242.1 2.05447 240.583 0.537456 238.712 0.537456H191.689C189.817 0.537456 188.3 2.05447 188.3 3.9258V37.2984C188.3 39.1697 189.817 40.6867 191.689 40.6867H211.812C213.683 40.6867 215.2 42.2037 215.2 44.0751V77.3804C215.2 79.2517 216.717 80.7687 218.589 80.7687H265.612C267.483 80.7687 269 79.2517 269 77.3804V44.0078C269 42.1365 267.483 40.6195 265.612 40.6195H245.489C243.617 40.6195 242.1 39.1025 242.1 37.2311V3.9258Z" fill="black"/>
<path fill-rule="evenodd" clip-rule="evenodd" d="M94.1497 19.9477V60.8998L94.2534 60.7961L114.157 80.7H155.05L174.85 60.8998V40.35H154.944V0.207082L154.778 0.0417506L154.82 0H114.221L114.263 0.0417506L94.2534 20.0515L94.1497 19.9477Z" fill="black"/>
</svg>
