<svg width="24" height="24" viewBox="0 0 24 24" fill="none" xmlns="http://www.w3.org/2000/svg">
<path d="M13.0393 3.58189C12.4398 3.26901 11.6164 3.26431 11.0127 3.57608C8.43408 4.90782 6.09739 6.43365 4.05143 8.12426C3.7786 8.3497 3.59805 8.66523 3.60114 9.02588C3.60422 9.3853 3.78887 9.69732 4.0608 9.91966C6.0903 11.5791 8.42961 13.1067 10.9614 14.4281C11.5609 14.741 12.3843 14.7457 12.988 14.4339C15.5666 13.1022 17.9033 11.5763 19.9493 9.88574C20.2221 9.6603 20.4026 9.34477 20.3995 8.98411C20.3965 8.62469 20.2118 8.31268 19.9399 8.09033C17.9104 6.43089 15.5711 4.90327 13.0393 3.58189Z" fill="black"/>
<path d="M20.9584 13.7314C21.3097 13.512 21.4167 13.0494 21.1974 12.698C20.978 12.3467 20.5154 12.2397 20.164 12.459L14.0568 16.2719C13.5127 16.6116 12.7736 16.8009 12.0002 16.801C11.2267 16.801 10.4875 16.6117 9.94338 16.2721L3.90305 12.5024C3.55165 12.2831 3.08901 12.3902 2.8697 12.7416C2.6504 13.093 2.75748 13.5556 3.10887 13.7749L9.1492 17.5446C9.97806 18.0619 11.0063 18.301 12.0003 18.301C12.9942 18.3009 14.0224 18.0617 14.8511 17.5443L20.9584 13.7314Z" fill="black"/>
<path d="M20.9584 17.4861C21.3098 17.2667 21.4167 16.804 21.1973 16.4527C20.9779 16.1013 20.5152 15.9944 20.1639 16.2138L14.875 19.5167C14.1022 19.9993 13.0683 20.2602 12.0001 20.2602C10.9319 20.2603 9.898 19.9995 9.12499 19.517L3.90312 16.2572C3.55175 16.0378 3.0891 16.1448 2.86975 16.4962C2.6504 16.8476 2.75743 17.3102 3.1088 17.5296L8.33066 20.7894C9.38844 21.4497 10.7115 21.7603 12.0002 21.7602C13.2889 21.7602 14.6119 21.4494 15.6695 20.7889L20.9584 17.4861Z" fill="black"/>
</svg>
