<svg width="24" height="24" viewBox="0 0 24 24" fill="none" xmlns="http://www.w3.org/2000/svg">
<path fill-rule="evenodd" clip-rule="evenodd" d="M21.0106 10.1719L21.0132 13.7948C20.9877 14.1399 20.9548 14.4846 20.9146 14.8287C20.8473 15.4042 20.3795 15.8683 19.7921 15.9339C17.9524 16.1396 16.0485 16.1396 14.2088 15.9339C13.6214 15.8683 13.1536 15.4042 13.0863 14.8287C12.8666 12.9497 12.8666 11.0515 13.0863 9.1725C13.1536 8.59709 13.6214 8.13295 14.2088 8.0673C16.0485 7.86168 17.9524 7.86168 19.7921 8.0673C20.3795 8.13295 20.8473 8.59709 20.9146 9.1725C20.9535 9.50511 20.9855 9.83831 21.0106 10.1719ZM17.0004 10.5006C16.172 10.5006 15.5004 11.1722 15.5004 12.0006C15.5004 12.829 16.172 13.5006 17.0004 13.5006C17.8289 13.5006 18.5004 12.829 18.5004 12.0006C18.5004 11.1722 17.8289 10.5006 17.0004 10.5006Z" fill="black"/>
<path d="M20.404 6.04034C20.5595 6.3096 20.2677 6.61112 19.9587 6.57658C18.0082 6.35859 15.9927 6.35859 14.0422 6.57658C12.7728 6.71845 11.7462 7.71799 11.5965 8.99825C11.3632 10.993 11.3632 13.0082 11.5965 15.003C11.7462 16.2833 12.7728 17.2828 14.0422 17.4247C15.9927 17.6427 18.0082 17.6427 19.9587 17.4247C20.2698 17.3899 20.564 17.6935 20.407 17.9643C19.6284 19.3071 18.2403 20.2443 16.6273 20.414L15.9754 20.4826C12.6645 20.831 9.32511 20.8081 6.01935 20.4141L5.58741 20.3627C3.80529 20.1503 2.39324 18.7579 2.15587 16.979C1.71497 13.6747 1.71497 10.3265 2.15587 7.02227C2.39324 5.24331 3.80529 3.85095 5.58741 3.63859L6.01935 3.58712C9.3251 3.19319 12.6645 3.17022 15.9754 3.51862L16.6273 3.58722C18.2416 3.7571 19.6276 4.69571 20.404 6.04034Z" fill="black"/>
</svg>
